<?xml version="1.0" encoding="utf-8"?>
<!-- Generator: Adobe Illustrator 18.1.1, SVG Export Plug-In . SVG Version: 6.00 Build 0)  -->
<svg version="1.1"
	 id="svg3601" xmlns:dc="http://purl.org/dc/elements/1.1/" xmlns:rdf="http://www.w3.org/1999/02/22-rdf-syntax-ns#" xmlns:cc="http://creativecommons.org/ns#" xmlns:svg="http://www.w3.org/2000/svg"
	 xmlns="http://www.w3.org/2000/svg" xmlns:xlink="http://www.w3.org/1999/xlink" x="0px" y="0px"
	 viewBox="259.783 370.535 90.519 50.074" enable-background="new 259.783 370.535 90.519 50.074" xml:space="preserve">
	<path fill="#FFFFFF" d="M259.783,396.682h8.74v-7.704h12.52c3.628,0,3.628-1.59,3.628-2.444c0-0.854,0-2.444-3.925-2.444h-12.224
		v-11.409h12.815c11.523,0,15.631,6.62,15.631,12.815c0,3.443-1.149,6.421-3.283,8.62c3.275,2.266,4.764,5.693,4.764,10.788
		c0,6.868-4.754,14.889-18.148,14.889h-20.519V396.682z M263.192,416.386h17.111c10.868,0,14.74-5.93,14.74-11.48
		c0-5.589-1.936-7.572-5.061-8.963l-2.892-1.286l2.665-1.706c3.147-2.012,3.806-5.165,3.806-7.454c0-2.206-0.881-9.407-12.222-9.407
		h-9.407v4.592h8.815c6.38,0,7.334,3.666,7.334,5.852c0,1.759-0.686,5.852-7.037,5.852h-9.112v4.295h9.556
		c3.547,0,7.778,1.273,7.778,7.334c0,6.38-4.595,7.334-7.334,7.334h-13.409v-11.259h-5.331V416.386z M271.932,407.941h10
		c3.268,0,3.925-1.502,3.925-3.925c0-2.069-0.334-3.925-4.369-3.925h-9.556V407.941z"/>
	<path fill="#FFFFFF" d="M350.302,419.794h-20.519c-13.394,0-18.148-8.021-18.148-14.889c0-5.095,1.489-8.523,4.764-10.788
		c-2.133-2.199-3.283-5.178-3.283-8.62c0-6.195,4.106-12.815,15.629-12.815h12.815v11.409h-12.222c-3.925,0-3.925,1.59-3.925,2.444
		c0,0.854,0,2.444,3.628,2.444h12.519v7.704h8.741V419.794z M328.746,376.091c-11.34,0-12.221,7.201-12.221,9.407
		c0,2.289,0.66,5.441,3.806,7.454l2.666,1.706l-2.893,1.286c-3.125,1.389-5.061,3.372-5.061,8.963c0,5.55,3.871,11.48,14.74,11.48
		h17.111v-16.295h-5.333v11.259h-13.407c-2.739,0-7.334-0.953-7.334-7.334c0-6.06,4.23-7.334,7.778-7.334h9.554v-4.295h-9.11
		c-6.351,0-7.037-4.093-7.037-5.852c0-2.186,0.953-5.852,7.334-5.852h8.814v-4.592H328.746z M328.598,400.091
		c-4.035,0-4.369,1.856-4.369,3.925c0,2.423,0.657,3.925,3.925,3.925h9.999v-7.85H328.598z"/>
	<rect x="303.487" y="370.535" fill="#FFFFFF" width="3.409" height="50.074"/>
</svg>
