<?xml version="1.0" encoding="utf-8"?>
<!-- Generator: Adobe Illustrator 18.1.1, SVG Export Plug-In . SVG Version: 6.00 Build 0)  -->
<svg
	version="1.1" id="Layer_1" xmlns="http://www.w3.org/2000/svg" xmlns:xlink="http://www.w3.org/1999/xlink" x="0px" y="0px"
	viewBox="81.128 590.384 55.321 55.354" enable-background="new 81.128 590.384 55.321 55.354" xml:space="preserve">
	<path fill="#FFFFFF" d="M129.055,599.223c-0.229-0.246-0.456-0.492-0.695-0.731c-0.238-0.239-0.485-0.467-0.73-0.696l-0.696,0.696
		l-0.73,0.73l-2.313,2.313l-0.077,0.077l-1.349,1.349l-2.338,2.338l0,0l-1.426,1.426c0.253,0.221,0.508,0.438,0.748,0.678
		s0.457,0.496,0.679,0.748c2.408,2.747,3.736,6.223,3.736,9.91c0,4.025-1.567,7.81-4.414,10.658
		c-2.847,2.846-6.632,4.414-10.658,4.414c-3.687,0-7.162-1.328-9.91-3.736l-0.39,0.39l-1.037,1.037
		c3.131,2.787,7.111,4.327,11.336,4.327c4.565,0,8.856-1.778,12.084-5.006c3.228-3.228,5.006-7.519,5.006-12.083
		c0-4.226-1.54-8.206-4.327-11.336l2.338-2.338c3.406,3.753,5.271,8.57,5.271,13.675c0,5.441-2.119,10.557-5.966,14.404
		c-3.848,3.848-8.964,5.967-14.405,5.967c-5.104,0-9.921-1.864-13.674-5.271l-1.426,1.426c4.136,3.787,9.458,5.862,15.101,5.862
		c5.98,0,11.603-2.328,15.831-6.558c4.227-4.23,6.555-9.851,6.555-15.832c0-5.644-2.075-10.966-5.862-15.101l2.312-2.312l0,0
		c9.298,10.052,9.07,25.791-0.695,35.557c-4.846,4.846-11.29,7.516-18.144,7.516c-6.517,0-12.659-2.417-17.413-6.82l-0.73,0.73
		l-0.696,0.696c5.136,4.783,11.784,7.41,18.84,7.41c7.393,0,14.343-2.879,19.571-8.107
		C138.912,627.08,139.139,610.061,129.055,599.223z"/>
		<path fill="#FFFFFF" d="M123.813,601.611l0.077-0.077c-4.136-3.787-9.458-5.862-15.1-5.862c-5.98,0-11.603,2.328-15.831,6.558
			c-4.23,4.229-6.559,9.851-6.559,15.831c0,5.643,2.075,10.966,5.862,15.101l-2.312,2.312c-9.298-10.052-9.069-25.791,0.696-35.557
			c4.846-4.846,11.29-7.516,18.144-7.516c6.517,0,12.659,2.417,17.413,6.82l-2.313,2.313l2.313-2.313l0.73-0.73l0.696-0.696
			c-5.136-4.783-11.785-7.41-18.841-7.41c-7.393,0-14.343,2.879-19.571,8.107c-10.552,10.552-10.779,27.571-0.695,38.41
			c0.229,0.246,0.456,0.492,0.695,0.731c0.238,0.238,0.485,0.467,0.73,0.696l0.696-0.696l0.73-0.73l2.313-2.313l1.426-1.426
			l2.338-2.338l1.037-1.037l0.39-0.39c-0.253-0.221-0.508-0.438-0.748-0.678c-0.24-0.24-0.457-0.495-0.678-0.748
			c-2.408-2.747-3.736-6.223-3.736-9.91c0-4.026,1.567-7.811,4.414-10.659c2.847-2.846,6.632-4.414,10.658-4.414
			c3.687,0,7.163,1.329,9.91,3.737l1.426-1.426c-3.131-2.787-7.111-4.328-11.337-4.328c-4.564,0-8.856,1.778-12.084,5.006
			c-3.228,3.228-5.006,7.519-5.006,12.083c0,4.226,1.54,8.206,4.327,11.337l-2.338,2.338c-3.406-3.752-5.27-8.569-5.27-13.673
			c0-5.442,2.119-10.557,5.967-14.405c3.848-3.848,8.963-5.967,14.405-5.967c5.104,0,9.921,1.865,13.674,5.271l-2.338,2.338l0,0
			l2.338-2.338L123.813,601.611z"/>
</svg>
