<?xml version="1.0" encoding="utf-8"?>
<!-- Generator: Adobe Illustrator 18.1.1, SVG Export Plug-In . SVG Version: 6.00 Build 0)  -->
<svg version="1.1" id="Layer_1" xmlns="http://www.w3.org/2000/svg" xmlns:xlink="http://www.w3.org/1999/xlink" x="0px" y="0px"
	 viewBox="276.754 366.89 56.918 56.918" enable-background="new 276.754 366.89 56.918 56.918" xml:space="preserve">
<g>
	<path fill="#FFFFFF" d="M305.213,423.808c-15.692,0-28.459-12.767-28.459-28.459s12.767-28.459,28.459-28.459
		s28.459,12.767,28.459,28.459S320.905,423.808,305.213,423.808z M305.213,370.122c-13.91,0-25.227,11.317-25.227,25.227
		s11.317,25.227,25.227,25.227s25.227-11.317,25.227-25.227S319.123,370.122,305.213,370.122z"/>
	<g>
		<path fill="#FFFFFF" d="M285.551,387.994h9.033v2.684h-6.107v2.483h5.771v2.684h-5.771v2.684h6.442v2.684h-9.395L285.551,387.994z
			"/>
		<path fill="#FFFFFF" d="M296.556,394.651c-0.014-0.992,0.168-1.978,0.537-2.899c0.334-0.835,0.842-1.59,1.49-2.215
			c0.658-0.596,1.43-1.052,2.268-1.342c1.86-0.651,3.885-0.651,5.744,0c0.839,0.29,1.61,0.747,2.268,1.342
			c0.648,0.625,1.155,1.379,1.49,2.215c0.716,1.862,0.716,3.923,0,5.785c-0.336,0.83-0.844,1.581-1.49,2.201
			c-0.658,0.596-1.429,1.052-2.268,1.342c-1.86,0.651-3.885,0.651-5.744,0c-0.839-0.289-1.611-0.746-2.268-1.342
			c-0.622-0.627-1.107-1.376-1.423-2.201C296.77,396.624,296.565,395.643,296.556,394.651z M299.603,394.651
			c-0.023,0.582,0.059,1.164,0.242,1.718c0.184,0.499,0.467,0.956,0.832,1.342c0.379,0.392,0.836,0.698,1.342,0.899
			c1.092,0.423,2.303,0.423,3.396,0c0.506-0.202,0.963-0.508,1.342-0.899c0.365-0.387,0.648-0.843,0.832-1.342
			c0.391-1.112,0.391-2.324,0-3.436c-0.183-0.499-0.467-0.956-0.832-1.342c-0.379-0.392-0.836-0.698-1.342-0.899
			c-1.092-0.425-2.304-0.425-3.396,0c-0.506,0.201-0.964,0.507-1.342,0.899c-0.366,0.386-0.649,0.843-0.832,1.342
			C299.663,393.487,299.581,394.068,299.603,394.651z"/>
		<path fill="#FFFFFF" d="M312.904,387.994h4.026l5.65,9.247l0,0v-9.247h2.926v13.301h-3.825l-5.811-9.476l0,0v9.476h-2.966V387.994
			z"/>
	</g>
</g>
</svg>
