<?xml version="1.0" encoding="utf-8"?>
<!-- Generator: Adobe Illustrator 18.1.1, SVG Export Plug-In . SVG Version: 6.00 Build 0)  -->
<svg version="1.1" id="Layer_1" xmlns="http://www.w3.org/2000/svg" xmlns:xlink="http://www.w3.org/1999/xlink" x="0px" y="0px"
	 viewBox="223.837 362.094 161.526 66.601" enable-background="new 223.837 362.094 161.526 66.601" xml:space="preserve">
	<polygon fill="#FFFFFF" points="253.31,387.356 241.827,387.356 241.827,362.783 223.837,362.783 223.837,427.929 241.827,427.929
		241.827,403.815 253.31,403.815 253.31,427.929 271.3,427.929 271.3,362.783 253.31,362.783 	"/>
	<path fill="#FFFFFF" d="M352.063,362.094c-13.462,0-25.075,8.034-30.319,19.556c0.05-0.705,0.081-1.437,0.081-2.217
		c0-13.933-14.162-16.65-19.138-16.65h-27.559v65.146h28.707c0,0,17.224,0.766,17.224-19.138c0-0.476-0.016-0.932-0.042-1.376
		c4.832,12.436,16.922,21.279,31.046,21.279c18.362,0,33.3-14.939,33.3-33.3C385.363,377.032,370.424,362.094,352.063,362.094z
		 M300.772,412.618h-9.569v-9.952h9.569c0,0,3.828,0,3.828,4.593C304.6,412.236,300.772,412.618,300.772,412.618z M300.772,388.504
		h-9.569v-9.837h9.569c0,0,3.828-0.038,3.828,4.67S300.772,388.504,300.772,388.504z M312.255,394.743
		c2.317-0.421,4.977-1.629,6.905-4.49c-0.261,1.676-0.398,3.392-0.398,5.14c0,1.779,0.144,3.524,0.414,5.227
		C315.963,394.967,309.977,395.171,312.255,394.743z M352.063,411.853c-9.075,0-16.459-7.384-16.459-16.459
		c0-9.076,7.384-16.459,16.459-16.459s16.459,7.383,16.459,16.459C368.521,404.469,361.138,411.853,352.063,411.853z"/>
	<circle fill="#FFFFFF" cx="352.063" cy="395.394" r="13.397"/>
</svg>
