<?xml version="1.0" encoding="utf-8"?>
<!-- Generator: Adobe Illustrator 18.1.1, SVG Export Plug-In . SVG Version: 6.00 Build 0)  -->
<svg version="1.1" id="Layer_1" xmlns="http://www.w3.org/2000/svg" xmlns:xlink="http://www.w3.org/1999/xlink" x="0px" y="0px"
	 viewBox="0 0 274.4 274.1" enable-background="new 0 0 274.4 274.1" xml:space="preserve">
<g>
	<g>
		<path fill="#FFFFFF" d="M274.4,134.6c-0.7-37.8-14.6-69.9-41.9-96.2c-27.3-26.2-59.9-39-97.7-38.3c-37.9,0.7-70,14.7-96.3,41.9
			C12.2,69.1-0.7,101.7,0,139.6c0.7,37.9,14.7,69.9,41.9,96.2c27.3,26.3,59.9,39.1,97.8,38.4c37.9-0.7,70-14.6,96.3-41.9
			C262.3,205,275.1,172.4,274.4,134.6z M207.8,205.1c-18.8,19.4-41.7,29.4-68.8,29.9c-27.1,0.5-50.4-8.6-69.9-27.4
			c-19.5-18.7-29.4-41.7-29.9-68.8c-0.5-27.1,8.6-50.4,27.4-69.8c18.7-19.5,41.7-29.4,68.8-29.9c27.1-0.5,50.4,8.6,69.8,27.4
			c19.4,18.7,29.4,41.6,29.9,68.7C235.7,162.4,226.6,185.6,207.8,205.1z"/>
	</g>
</g>
</svg>
