<?xml version="1.0" encoding="utf-8"?>
<!-- Generator: Adobe Illustrator 18.1.1, SVG Export Plug-In . SVG Version: 6.00 Build 0)  -->
<svg version="1.1"
	 id="svg3601" xmlns:dc="http://purl.org/dc/elements/1.1/" xmlns:rdf="http://www.w3.org/1999/02/22-rdf-syntax-ns#" xmlns:cc="http://creativecommons.org/ns#" xmlns:svg="http://www.w3.org/2000/svg"
	 xmlns="http://www.w3.org/2000/svg" xmlns:xlink="http://www.w3.org/1999/xlink" x="0px" y="0px"
	 viewBox="226.137 378.444 157.901 34.978" enable-background="new 226.137 378.444 157.901 34.978" xml:space="preserve">
<path id="path3348" fill="#FFFFFF" d="M380.55,378.444l-8.606,18.452l-3.252-7.001h-3.515l5.34,11.451h2.84l10.681-22.899v-0.003
	H380.55z"/>
<rect x="289.099" y="381.785" fill="#FFFFFF" width="6.995" height="6.193"/>
<polygon fill="#FFFFFF" points="234.069,412.709 241.376,412.709 249.308,389.895 242.312,389.895 237.857,404.554 237.766,404.554 
	233.311,389.895 226.137,389.895 234.069,412.709 "/>
<path fill="#FFFFFF" d="M260.091,408.342c-3.074,0-4.945-2.005-5.302-5.079h16.442c0.044-4.902-1.247-8.822-3.966-11.272
	c-1.915-1.783-4.455-2.763-7.663-2.763c-6.862,0-11.63,5.214-11.63,12.031c0,6.862,4.546,12.12,12.076,12.12
	c2.852,0,5.124-0.758,6.996-2.051c2.005-1.38,3.431-3.385,3.832-5.391h-6.684C263.522,407.452,262.14,408.342,260.091,408.342z
	 M259.734,394.218c2.45,0,4.144,1.826,4.411,4.5h-9.313C255.368,396,256.838,394.218,259.734,394.218z"/>
<path fill="#FFFFFF" d="M272.879,412.709h6.951v-10.471c0-4.767,2.851-6.862,7.217-6.283h0.134v-6.014
	c-0.356-0.134-0.757-0.179-1.426-0.179c-2.717,0-4.544,1.248-6.104,3.921h-0.134v-3.788h-6.638V412.709L272.879,412.709z"/>
<rect x="289.099" y="389.895" fill="#FFFFFF" width="6.995" height="22.814"/>
<polygon fill="#FFFFFF" points="298.011,412.709 317.527,412.709 317.527,407.228 306.476,407.228 306.476,407.095 317.038,395.243 
	317.038,389.895 298.011,389.895 298.011,395.376 308.704,395.376 308.704,395.51 298.011,407.452 298.011,412.709 "/>
<path fill="#FFFFFF" d="M329.914,389.271c-7.263,0-12.12,5.214-12.12,12.076c0,6.817,4.857,12.075,12.12,12.075
	c7.262,0,12.119-5.258,12.119-12.075C342.034,394.485,337.177,389.271,329.914,389.271z M329.869,408.298
	c-3.297,0-5.034-2.763-5.034-6.951c0-4.233,1.737-6.953,5.034-6.953c3.298,0,5.125,2.719,5.125,6.953
	C334.995,405.535,333.167,408.298,329.869,408.298z"/>
<path fill="#FFFFFF" d="M343.549,412.709h6.951V400.01c0-2.896,1.692-4.945,4.187-4.945c2.407,0,3.655,1.692,3.655,4.099v13.545
	h6.952v-14.883c0-5.034-3.03-8.599-7.931-8.599c-3.12,0-5.302,1.337-6.95,3.788h-0.134v-3.12h-6.729V412.709L343.549,412.709z"/>
</svg>
