<?xml version="1.0" encoding="utf-8"?>
<!-- Generator: Adobe Illustrator 18.1.1, SVG Export Plug-In . SVG Version: 6.00 Build 0)  -->
<svg version="1.1" id="Layer_1" xmlns="http://www.w3.org/2000/svg" xmlns:xlink="http://www.w3.org/1999/xlink" x="0px" y="0px"
	 viewBox="244.431 375.507 121.95 39.468" enable-background="new 244.431 375.507 121.95 39.468" xml:space="preserve">
<g>
	<polygon fill="#FFFFFF" points="293.576,376.199 287.397,414.405 297.276,414.405 303.454,376.199 	"/>
	<path fill="#FFFFFF" d="M323.373,391.522c-3.455-1.748-5.571-2.927-5.571-4.716c0.041-1.626,1.79-3.292,5.69-3.292
		c3.212-0.082,5.571,0.69,7.359,1.463l0.893,0.406l1.344-8.25c-1.948-0.773-5.039-1.627-8.86-1.627
		c-9.756,0-16.625,5.202-16.668,12.64c-0.081,5.487,4.919,8.535,8.658,10.365c3.822,1.87,5.121,3.09,5.121,4.757
		c-0.039,2.56-3.088,3.739-5.933,3.739c-3.944,0-6.057-0.608-9.269-2.032l-1.301-0.61l-1.382,8.576
		c2.317,1.056,6.586,1.992,11.018,2.033c10.366,0,17.114-5.122,17.194-13.048C331.705,397.578,329.065,394.245,323.373,391.522z"/>
	<path fill="#FFFFFF" d="M358.412,376.199h-7.641c-2.356,0-4.147,0.69-5.163,3.17l-14.674,35.035h10.366
		c0,0,1.706-4.715,2.073-5.731c1.137,0,11.221,0,12.684,0c0.284,1.341,1.179,5.731,1.179,5.731h9.147L358.412,376.199z
		 M346.217,400.87c0.814-2.195,3.944-10.69,3.944-10.69c-0.041,0.082,0.812-2.235,1.3-3.658l0.69,3.292
		c0,0,1.871,9.145,2.277,11.055C352.885,400.87,348.169,400.87,346.217,400.87z"/>
	<path fill="#FFFFFF" d="M279.146,376.199l-9.675,26.053l-1.057-5.284c0-0.001-0.001-0.002-0.001-0.002l-3.454-17.555
		c-0.569-2.44-2.317-3.131-4.471-3.212h-15.894l-0.163,0.772c3.877,0.991,7.344,2.42,10.382,4.196l8.805,33.197h10.447
		l15.528-38.165H279.146z"/>
</g>
</svg>
