<?xml version="1.0" encoding="utf-8"?>
<!-- Generator: Adobe Illustrator 18.1.1, SVG Export Plug-In . SVG Version: 6.00 Build 0)  -->
<svg version="1.1" id="Layer_1" xmlns="http://www.w3.org/2000/svg" xmlns:xlink="http://www.w3.org/1999/xlink" x="0px" y="0px"
	 viewBox="216.945 366.577 177.153 60.151" enable-background="new 216.945 366.577 177.153 60.151" xml:space="preserve">
<g>
	<path fill="#FFFFFF" d="M231.836,374.808l18.82,32.298c0,0,0.607,1.093,1.7,1.093h0.349c1.093,0,1.7-1.093,1.7-1.093l18.82-32.298
		l2.97-5.055c1.778-3.052,5.694-4.084,8.745-2.306c3.052,1.778,4.084,5.693,2.306,8.745l-26.525,45.521
		c-1.26,2.211-4.074,4.753-7.944,4.753h-0.492c-3.869,0-6.684-2.542-7.944-4.753l-26.525-45.521
		c-1.778-3.051-0.746-6.967,2.306-8.745c3.051-1.778,6.967-0.746,8.745,2.306L231.836,374.808z"/>
	<path fill="#FFFFFF" d="M337.816,374.808l18.82,32.298c0,0,0.607,1.093,1.7,1.093h0.349c1.093,0,1.7-1.093,1.7-1.093l18.82-32.298
		l2.97-5.055c1.778-3.052,5.694-4.084,8.745-2.306c3.052,1.778,4.084,5.693,2.306,8.745l-26.525,45.521
		c-1.26,2.211-4.074,4.753-7.944,4.753h-0.492c-3.869,0-6.684-2.542-7.944-4.753l-26.525-45.521
		c-1.778-3.051-0.746-6.967,2.306-8.745c3.052-1.778,6.967-0.746,8.745,2.306L337.816,374.808z"/>
	<path fill="#FFFFFF" d="M305.55,426.728c-3.544,0-6.418-2.873-6.418-6.418v-46.866c0-3.544,2.873-6.418,6.418-6.418
		c3.544,0,6.418,2.873,6.418,6.418v46.866C311.968,423.855,309.094,426.728,305.55,426.728z"/>
</g>
</svg>
